<mxfile host="www.draw.io" modified="2019-12-20T16:52:05.143Z" agent="Mozilla/5.0 (Windows NT 10.0; Win64; x64) AppleWebKit/537.36 (KHTML, like Gecko) Chrome/78.0.3904.108 Safari/537.36" etag="j6PKKuGzUIa87CRgeCtS" version="12.4.3" type="github" pages="1">
  <diagram id="Gz5zGrPPfyLzlaGfGfF2" name="Page-1">
    <mxGraphModel dx="957" dy="702" grid="1" gridSize="10" guides="1" tooltips="1" connect="1" arrows="1" fold="1" page="1" pageScale="1" pageWidth="827" pageHeight="1169" math="0" shadow="0">
      <root>
        <mxCell id="0"/>
        <mxCell id="1" parent="0"/>
        <mxCell id="U95zjzr5ysujBftmltsH-1" value="P" style="ellipse;whiteSpace=wrap;html=1;" parent="1" vertex="1">
          <mxGeometry x="60" y="40" width="30" height="30" as="geometry"/>
        </mxCell>
        <mxCell id="jNA6jABl4a_7EUZg8Hpg-1" value="P" style="ellipse;whiteSpace=wrap;html=1;" vertex="1" parent="1">
          <mxGeometry x="320" y="260" width="30" height="30" as="geometry"/>
        </mxCell>
        <mxCell id="jNA6jABl4a_7EUZg8Hpg-2" value="P" style="ellipse;whiteSpace=wrap;html=1;" vertex="1" parent="1">
          <mxGeometry x="240" y="130" width="30" height="30" as="geometry"/>
        </mxCell>
      </root>
    </mxGraphModel>
  </diagram>
</mxfile>
